<svg xmlns="http://www.w3.org/2000/svg" xmlns:xlink="http://www.w3.org/1999/xlink" width="500" zoomAndPan="magnify" viewBox="0 0 375 374.999991" height="500" preserveAspectRatio="xMidYMid meet" version="1.0"><defs><clipPath id="b317f247bc"><path d="M 23 22 L 352.332031 22 L 352.332031 352 L 23 352 Z M 23 22 " clip-rule="nonzero"/></clipPath></defs><g clip-path="url(#b317f247bc)"><path fill="#ffffff" d="M 187.21875 22.222656 C 95.589844 22.53125 22.355469 97.183594 23.550781 188.992188 C 23.605469 193.605469 23.855469 198.207031 24.296875 202.796875 C 24.738281 207.390625 25.371094 211.953125 26.199219 216.492188 C 27.027344 221.03125 28.042969 225.527344 29.246094 229.976562 C 30.453125 234.429688 31.84375 238.824219 33.421875 243.15625 C 34.996094 247.492188 36.75 251.75 38.6875 255.9375 C 40.621094 260.121094 42.726562 264.21875 45.007812 268.226562 C 47.289062 272.234375 49.734375 276.136719 52.34375 279.9375 C 54.953125 283.738281 57.714844 287.421875 60.636719 290.988281 C 61.09375 291.550781 61.507812 292.144531 61.878906 292.769531 C 62.25 293.394531 62.570312 294.046875 62.84375 294.71875 C 63.117188 295.390625 63.335938 296.082031 63.507812 296.789062 C 63.675781 297.496094 63.792969 298.210938 63.855469 298.933594 C 63.921875 299.660156 63.929688 300.382812 63.882812 301.109375 C 63.839844 301.835938 63.742188 302.550781 63.589844 303.261719 C 63.4375 303.972656 63.230469 304.667969 62.976562 305.347656 C 62.71875 306.03125 62.414062 306.6875 62.0625 307.320312 L 47.914062 332.726562 C 43.988281 339.769531 50.382812 348.097656 58.183594 346.105469 L 106.101562 333.882812 C 107.773438 333.457031 109.46875 333.332031 111.183594 333.507812 C 112.898438 333.683594 114.53125 334.152344 116.082031 334.90625 C 126.675781 340.066406 137.703125 344.03125 149.152344 346.800781 C 160.605469 349.570312 172.21875 351.082031 184 351.335938 C 276.125 353.421875 351.742188 279.660156 352.027344 187.324219 C 352.3125 96 278.363281 21.914062 187.21875 22.222656 Z M 187.785156 331.097656 C 185.425781 331.097656 183.070312 331.039062 180.71875 330.925781 C 178.363281 330.808594 176.015625 330.632812 173.667969 330.402344 C 171.324219 330.171875 168.984375 329.882812 166.652344 329.535156 C 164.320312 329.191406 162 328.785156 159.6875 328.324219 C 157.378906 327.863281 155.078125 327.347656 152.792969 326.773438 C 150.507812 326.199219 148.234375 325.570312 145.980469 324.886719 C 143.726562 324.199219 141.488281 323.457031 139.269531 322.664062 C 137.050781 321.867188 134.851562 321.019531 132.675781 320.113281 C 130.496094 319.210938 128.34375 318.253906 126.210938 317.246094 C 124.082031 316.234375 121.976562 315.171875 119.898438 314.058594 C 117.820312 312.945312 115.769531 311.78125 113.75 310.570312 C 111.726562 309.355469 109.738281 308.09375 107.777344 306.78125 C 105.816406 305.46875 103.890625 304.109375 102 302.703125 C 100.105469 301.296875 98.246094 299.84375 96.425781 298.34375 C 94.605469 296.847656 92.820312 295.304688 91.074219 293.71875 C 89.328125 292.132812 87.621094 290.503906 85.953125 288.835938 C 84.289062 287.164062 82.664062 285.453125 81.082031 283.703125 C 79.5 281.957031 77.960938 280.167969 76.464844 278.34375 C 74.96875 276.515625 73.519531 274.65625 72.117188 272.757812 C 70.710938 270.863281 69.355469 268.929688 68.046875 266.96875 C 66.734375 265.003906 65.476562 263.007812 64.265625 260.984375 C 63.050781 258.957031 61.890625 256.90625 60.78125 254.820312 C 59.667969 252.738281 58.609375 250.628906 57.601562 248.496094 C 56.59375 246.359375 55.640625 244.203125 54.738281 242.019531 C 53.835938 239.839844 52.988281 237.636719 52.195312 235.414062 C 51.398438 233.1875 50.660156 230.945312 49.976562 228.6875 C 49.292969 226.425781 48.664062 224.152344 48.089844 221.859375 C 47.519531 219.570312 47.003906 217.265625 46.542969 214.949219 C 46.082031 212.632812 45.679688 210.308594 45.335938 207.972656 C 44.988281 205.636719 44.699219 203.292969 44.46875 200.941406 C 44.238281 198.59375 44.066406 196.238281 43.949219 193.878906 C 43.832031 191.519531 43.777344 189.160156 43.777344 186.800781 C 43.777344 107.105469 108.25 42.5 187.785156 42.5 C 267.007812 42.5 331.289062 106.605469 331.789062 185.871094 C 332.289062 265.40625 267.160156 331.097656 187.785156 331.097656 Z M 187.785156 331.097656 " fill-opacity="1" fill-rule="nonzero"/></g><path fill="#ffffff" d="M 162.046875 116.644531 L 162.113281 116.777344 L 170.699219 133.847656 C 171.164062 134.765625 171.546875 135.714844 171.855469 136.695312 C 172.167969 137.675781 172.394531 138.671875 172.542969 139.691406 C 172.691406 140.707031 172.757812 141.730469 172.742188 142.757812 C 172.722656 143.785156 172.625 144.804688 172.445312 145.820312 C 172.265625 146.832031 172.003906 147.820312 171.664062 148.792969 C 171.324219 149.761719 170.90625 150.699219 170.417969 151.601562 C 169.925781 152.503906 169.363281 153.359375 168.734375 154.171875 C 168.105469 154.984375 167.417969 155.742188 166.664062 156.441406 C 165.917969 157.136719 165.230469 157.886719 164.601562 158.691406 C 163.976562 159.5 163.417969 160.351562 162.925781 161.246094 C 162.433594 162.140625 162.019531 163.070312 161.675781 164.035156 C 161.335938 164.996094 161.074219 165.980469 160.890625 166.988281 C 160.707031 167.992188 160.601562 169.003906 160.582031 170.027344 C 160.5625 171.050781 160.621094 172.066406 160.761719 173.078125 C 160.90625 174.089844 161.125 175.085938 161.429688 176.0625 C 161.730469 177.039062 162.105469 177.984375 162.558594 178.898438 C 167.714844 189.273438 176.648438 203.574219 190.28125 213.890625 C 191.039062 214.46875 191.839844 214.988281 192.675781 215.445312 C 193.511719 215.90625 194.378906 216.296875 195.273438 216.625 C 196.171875 216.953125 197.085938 217.214844 198.019531 217.40625 C 198.953125 217.597656 199.898438 217.71875 200.851562 217.769531 C 201.804688 217.816406 202.753906 217.796875 203.703125 217.703125 C 204.652344 217.609375 205.589844 217.449219 206.515625 217.214844 C 207.441406 216.980469 208.34375 216.679688 209.222656 216.3125 C 210.101562 215.945312 210.949219 215.511719 211.765625 215.019531 L 217.296875 211.644531 C 218.539062 210.886719 219.847656 210.28125 221.226562 209.824219 C 222.605469 209.367188 224.019531 209.074219 225.464844 208.941406 C 226.910156 208.804688 228.351562 208.839844 229.789062 209.035156 C 231.230469 209.230469 232.628906 209.585938 233.984375 210.105469 L 255.972656 218.480469 C 256.554688 218.703125 257.125 218.953125 257.6875 219.230469 C 258.246094 219.511719 258.789062 219.816406 259.320312 220.148438 C 259.847656 220.480469 260.359375 220.839844 260.855469 221.222656 C 261.347656 221.605469 261.824219 222.011719 262.277344 222.441406 C 262.734375 222.871094 263.164062 223.320312 263.574219 223.792969 C 263.984375 224.265625 264.371094 224.753906 264.734375 225.265625 C 265.097656 225.773438 265.433594 226.300781 265.742188 226.84375 C 266.054688 227.386719 266.335938 227.945312 266.59375 228.515625 C 266.847656 229.085938 267.078125 229.667969 267.273438 230.261719 C 267.472656 230.855469 267.644531 231.457031 267.78125 232.066406 C 267.921875 232.679688 268.03125 233.292969 268.113281 233.914062 C 268.191406 234.535156 268.242188 235.160156 268.257812 235.785156 C 268.277344 236.410156 268.265625 237.035156 268.222656 237.660156 C 268.179688 238.285156 268.105469 238.90625 268 239.523438 C 267.898438 240.140625 267.765625 240.75 267.601562 241.355469 C 267.4375 241.957031 267.242188 242.554688 267.023438 243.136719 C 266.765625 243.8125 266.472656 244.46875 266.144531 245.109375 L 260.050781 256.941406 C 259.558594 257.898438 258.988281 258.804688 258.339844 259.667969 C 257.695312 260.527344 256.980469 261.328125 256.199219 262.066406 C 255.417969 262.808594 254.582031 263.476562 253.6875 264.074219 C 252.792969 264.671875 251.855469 265.191406 250.871094 265.628906 C 249.890625 266.066406 248.878906 266.421875 247.839844 266.6875 C 246.796875 266.957031 245.742188 267.136719 244.671875 267.222656 C 243.597656 267.3125 242.527344 267.3125 241.457031 267.21875 C 240.386719 267.128906 239.332031 266.945312 238.289062 266.675781 C 203.757812 257.722656 121.464844 226.605469 114.832031 132.515625 C 114.769531 131.585938 114.769531 130.65625 114.839844 129.730469 C 114.910156 128.800781 115.046875 127.882812 115.25 126.972656 C 115.453125 126.066406 115.722656 125.175781 116.054688 124.308594 C 116.386719 123.4375 116.78125 122.597656 117.238281 121.785156 C 117.695312 120.976562 118.207031 120.199219 118.773438 119.464844 C 119.34375 118.726562 119.960938 118.035156 120.632812 117.390625 C 121.300781 116.746094 122.011719 116.152344 122.769531 115.609375 C 123.523438 115.066406 124.316406 114.585938 125.140625 114.160156 L 136.355469 108.386719 C 136.910156 108.101562 137.480469 107.839844 138.0625 107.609375 C 138.640625 107.382812 139.234375 107.179688 139.832031 107.007812 C 140.433594 106.835938 141.042969 106.691406 141.65625 106.582031 C 142.269531 106.46875 142.890625 106.386719 143.511719 106.335938 C 144.136719 106.285156 144.757812 106.261719 145.382812 106.273438 C 146.007812 106.28125 146.632812 106.324219 147.25 106.394531 C 147.871094 106.464844 148.488281 106.566406 149.097656 106.699219 C 149.710938 106.832031 150.3125 106.992188 150.90625 107.183594 C 151.503906 107.375 152.085938 107.59375 152.660156 107.84375 C 153.234375 108.09375 153.792969 108.371094 154.339844 108.671875 C 154.886719 108.976562 155.417969 109.308594 155.929688 109.664062 C 156.445312 110.019531 156.9375 110.398438 157.414062 110.804688 C 157.890625 111.210938 158.347656 111.636719 158.78125 112.085938 C 159.21875 112.535156 159.628906 113.007812 160.019531 113.496094 C 160.40625 113.988281 160.769531 114.496094 161.109375 115.019531 C 161.449219 115.546875 161.761719 116.089844 162.046875 116.644531 Z M 162.046875 116.644531 " fill-opacity="1" fill-rule="nonzero"/></svg>